<?xml version="1.0" encoding="utf-8"?>
<!-- Generator: Adobe Illustrator 15.0.0, SVG Export Plug-In . SVG Version: 6.00 Build 0)  -->
<!DOCTYPE svg PUBLIC "-//W3C//DTD SVG 1.1//EN" "http://www.w3.org/Graphics/SVG/1.1/DTD/svg11.dtd">
<svg version="1.1" id="Layer_1" xmlns="http://www.w3.org/2000/svg" xmlns:xlink="http://www.w3.org/1999/xlink" x="0px" y="0px"
	 width="272px" height="96px" viewBox="0 0 272 96" enable-background="new 0 0 272 96" xml:space="preserve">
<g>
	<path fill="none" d="M113.552,50.721c-1.273-1.34-2.78-2.399-4.521-3.181c-1.742-0.781-3.639-1.172-5.693-1.172
		c-2.1,0-4.008,0.379-5.727,1.139c-1.72,0.76-3.193,1.808-4.421,3.148c-1.229,1.34-2.189,2.891-2.88,4.654
		c-0.692,1.766-1.038,3.65-1.038,5.66v0.135c0,2.008,0.346,3.906,1.038,5.693c0.691,1.785,1.675,3.348,2.947,4.688
		c1.273,1.34,2.768,2.4,4.487,3.182s3.628,1.172,5.727,1.172c2.053,0,3.953-0.379,5.694-1.139c1.741-0.758,3.225-1.809,4.454-3.148
		c1.227-1.34,2.188-2.891,2.88-4.654c0.691-1.764,1.039-3.65,1.039-5.66v-0.133c0-2.01-0.347-3.908-1.039-5.693
		C115.807,53.625,114.824,52.061,113.552,50.721z"/>
	<path fill="#F7E824" d="M33.473,61.404c-1.276-1.094-2.843-2.031-4.7-2.814c-1.859-0.779-3.973-1.482-6.347-2.109
		c-2.015-0.535-3.683-1.004-5.003-1.406c-1.321-0.402-2.363-0.826-3.123-1.271c-0.762-0.447-1.288-0.949-1.578-1.508
		s-0.437-1.217-0.437-1.977v-0.133c0-1.161,0.502-2.132,1.507-2.915c1.004-0.78,2.512-1.172,4.521-1.172
		c2.009,0,4.019,0.414,6.028,1.239c2.009,0.827,4.063,1.955,6.163,3.382l5.357-7.77c-2.411-1.919-5.056-3.393-7.936-4.421
		c-2.881-1.026-6.041-1.54-9.478-1.54c-2.412,0-4.618,0.334-6.619,1.005c-2.003,0.67-3.724,1.63-5.167,2.879
		c-1.442,1.251-2.563,2.736-3.36,4.454c-0.799,1.72-1.197,3.651-1.197,5.794v0.133c0,2.322,0.369,4.266,1.109,5.828
		c0.737,1.563,1.778,2.869,3.122,3.918c1.344,1.051,2.977,1.932,4.902,2.645c1.926,0.717,4.074,1.365,6.447,1.943
		c1.971,0.492,3.571,0.961,4.802,1.406c1.23,0.447,2.193,0.895,2.887,1.34c0.694,0.447,1.164,0.928,1.411,1.439
		c0.247,0.514,0.369,1.105,0.369,1.775v0.135c0,1.385-0.592,2.467-1.774,3.248c-1.185,0.781-2.846,1.172-4.99,1.172
		c-2.68,0-5.147-0.512-7.402-1.541c-2.255-1.025-4.453-2.41-6.597-4.152l-6.096,7.301c2.813,2.545,5.938,4.432,9.377,5.66
		c3.438,1.229,6.943,1.842,10.516,1.842c2.545,0,4.862-0.324,6.955-0.971c2.092-0.648,3.892-1.584,5.4-2.813
		c1.508-1.229,2.684-2.748,3.527-4.555c0.843-1.809,1.265-3.875,1.265-6.195v-0.135c0-2.055-0.326-3.818-0.974-5.291
		C35.712,63.781,34.75,62.498,33.473,61.404z"/>
	<polygon fill="#F7E824" points="39.004,47.171 53.271,47.171 53.271,84.545 63.586,84.545 63.586,47.171 77.852,47.171 
		77.852,37.66 39.004,37.66 	"/>
	<rect x="179.581" y="37.66" fill="#F7E824" width="10.314" height="46.885"/>
	<polygon fill="#F7E824" points="206.732,65.523 228.836,65.523 228.836,56.346 206.732,56.346 206.732,46.836 231.849,46.836 
		231.849,37.66 196.552,37.66 196.552,84.545 232.185,84.545 232.185,75.369 206.732,75.369 	"/>
	<path fill="#F7E824" d="M267.839,61.404c-1.276-1.094-2.843-2.031-4.7-2.814c-1.859-0.779-3.974-1.482-6.347-2.109
		c-2.015-0.535-3.683-1.004-5.003-1.406c-1.321-0.402-2.362-0.826-3.123-1.271c-0.762-0.447-1.287-0.949-1.578-1.508
		s-0.437-1.217-0.437-1.977v-0.133c0-1.161,0.502-2.132,1.507-2.915c1.005-0.78,2.513-1.172,4.521-1.172s4.019,0.414,6.027,1.239
		c2.01,0.827,4.063,1.955,6.163,3.382l5.357-7.77c-2.41-1.919-5.057-3.393-7.937-4.421c-2.881-1.026-6.04-1.54-9.478-1.54
		c-2.412,0-4.618,0.334-6.619,1.005c-2.003,0.67-3.724,1.63-5.166,2.879c-1.442,1.251-2.563,2.736-3.36,4.454
		c-0.799,1.72-1.197,3.651-1.197,5.794v0.133c0,2.322,0.369,4.266,1.108,5.828c0.738,1.563,1.779,2.869,3.122,3.918
		c1.343,1.051,2.978,1.932,4.902,2.645c1.926,0.717,4.074,1.365,6.447,1.943c1.971,0.492,3.571,0.961,4.802,1.406
		c1.231,0.447,2.193,0.895,2.888,1.34c0.693,0.447,1.164,0.928,1.41,1.439c0.247,0.514,0.37,1.105,0.37,1.775v0.135
		c0,1.385-0.593,2.467-1.775,3.248c-1.184,0.781-2.846,1.172-4.989,1.172c-2.679,0-5.147-0.512-7.401-1.541
		c-2.256-1.025-4.454-2.41-6.598-4.152l-6.096,7.301c2.814,2.545,5.938,4.432,9.378,5.66c3.438,1.229,6.943,1.842,10.517,1.842
		c2.545,0,4.862-0.324,6.954-0.971c2.092-0.648,3.892-1.584,5.401-2.813c1.508-1.229,2.682-2.748,3.525-4.555
		c0.844-1.809,1.266-3.875,1.266-6.195v-0.135c0-2.055-0.326-3.818-0.975-5.291C270.078,63.781,269.115,62.498,267.839,61.404z"/>
	<path fill="#F7E824" d="M121.441,43.923c-2.21-2.166-4.833-3.885-7.869-5.158c-3.039-1.272-6.364-1.909-9.981-1.909
		c-3.616,0-6.956,0.636-10.013,1.909c-3.06,1.272-5.693,3.014-7.903,5.224c-2.21,2.21-3.942,4.779-5.19,7.702
		c-1.251,2.926-1.875,6.063-1.875,9.412v0.133c0,3.35,0.613,6.486,1.842,9.41c1.228,2.926,2.947,5.471,5.157,7.637
		c2.211,2.166,4.833,3.885,7.87,5.156c3.037,1.273,6.363,1.91,9.98,1.91c3.616,0,6.954-0.637,10.014-1.91
		c3.058-1.271,5.693-3.014,7.903-5.225c2.21-2.209,3.941-4.777,5.19-7.701c1.25-2.924,1.876-6.063,1.876-9.41v-0.135
		c0-3.35-0.614-6.486-1.842-9.41C125.371,48.634,123.652,46.089,121.441,43.923z M117.658,61.236c0,2.01-0.347,3.896-1.038,5.66
		c-0.693,1.764-1.653,3.314-2.88,4.654c-1.229,1.34-2.713,2.391-4.454,3.148c-1.741,0.76-3.641,1.139-5.694,1.139
		c-2.099,0-4.008-0.391-5.727-1.172s-3.214-1.842-4.487-3.182c-1.272-1.34-2.255-2.902-2.947-4.688
		c-0.692-1.787-1.039-3.686-1.039-5.693v-0.135c0-2.01,0.346-3.895,1.039-5.66c0.691-1.764,1.651-3.314,2.88-4.654
		c1.228-1.34,2.702-2.388,4.421-3.148c1.718-0.76,3.627-1.139,5.727-1.139c2.054,0,3.951,0.391,5.693,1.172
		c1.741,0.782,3.249,1.841,4.521,3.181c1.272,1.34,2.254,2.904,2.947,4.689c0.691,1.785,1.038,3.684,1.038,5.693V61.236z"/>
	<path fill="#F7E824" d="M83.395,69.988c-4.195,4.568-7.681,8.633-10.459,12.193c-2.78,3.563-4.792,6.521-6.034,8.871
		c-1.244,2.354-1.538,3.867-0.882,4.543l0.026,0.027c0.656,0.676,2.16,0.443,4.519-0.699c2.355-1.139,5.352-3.049,8.987-5.727
		c3.636-2.68,7.783-6.031,12.444-10.055s9.618-8.584,14.875-13.684c5.253-5.096,9.979-9.932,14.175-14.5
		c4.194-4.566,7.681-8.632,10.459-12.193c2.778-3.561,4.791-6.519,6.033-8.871c1.244-2.352,1.539-3.867,0.884-4.542l-0.026-0.027
		c-0.655-0.675-2.162-0.442-4.518,0.698c-2.358,1.142-5.352,3.05-8.988,5.73c-3.635,2.678-7.783,6.029-12.443,10.052l2.487,2.271
		c2.11-1.523,3.843-2.593,5.199-3.209c1.354-0.614,2.23-0.72,2.623-0.315l0.026,0.027c0.393,0.405,0.259,1.275-0.401,2.605
		c-0.66,1.332-1.752,2.999-3.273,5c-1.523,2.001-3.474,4.306-5.854,6.914c-2.382,2.607-5.066,5.361-8.049,8.256
		c-3.05,2.959-5.9,5.57-8.551,7.836s-5.031,4.158-7.143,5.684c-2.11,1.521-3.845,2.594-5.199,3.207
		c-1.356,0.617-2.23,0.721-2.623,0.316l-0.027-0.027c-0.393-0.406-0.26-1.273,0.401-2.605c0.66-1.33,1.751-2.996,3.273-5
		L83.395,69.988z"/>
	<path fill="#F7E824" d="M13.521,32.063c-2.407,0-4.756-0.42-7.048-1.261c-2.291-0.841-4.351-2.081-6.178-3.72l4.046-4.851
		c3.074,2.523,6.178,3.785,9.311,3.785c1.406,0,2.509-0.261,3.306-0.783c0.798-0.522,1.196-1.24,1.196-2.153v-0.087
		c0-0.608-0.16-1.116-0.479-1.522c-0.319-0.406-0.932-0.809-1.838-1.207c-0.907-0.399-2.23-0.816-3.97-1.251
		c-0.986-0.247-1.838-0.482-2.556-0.707C8.595,18.08,7.851,17.812,7.083,17.5c-0.769-0.312-1.414-0.634-1.936-0.968
		c-0.522-0.333-1.026-0.732-1.512-1.196c-0.486-0.464-0.874-0.975-1.164-1.533c-0.29-0.559-0.519-1.2-0.685-1.925
		c-0.167-0.725-0.25-1.523-0.25-2.393V9.397c0-2.813,1.018-5.083,3.056-6.809C6.629,0.863,9.25,0,12.456,0
		c4.438,0,8.295,1.319,11.573,3.959l-3.567,5.177c-2.973-2.059-5.67-3.089-8.092-3.089c-1.276,0-2.266,0.253-2.969,0.761
		c-0.704,0.508-1.055,1.16-1.055,1.958v0.087c0,1.001,0.435,1.762,1.305,2.284c0.871,0.522,2.683,1.131,5.438,1.827
		c1.667,0.435,3.078,0.902,4.231,1.403c1.153,0.5,2.171,1.113,3.056,1.838c0.884,0.725,1.537,1.592,1.958,2.599
		c0.421,1.008,0.631,2.179,0.631,3.514v0.086c0,3.032-1.048,5.398-3.143,7.103C19.725,31.212,16.958,32.063,13.521,32.063z"/>
	<path fill="#F7E824" d="M36.068,31.628V6.765h-9.484V0.435h25.82v6.331H42.92v24.863H36.068z"/>
	<path fill="#F7E824" d="M45.925,31.628L59.303,0.217h6.308l13.378,31.411h-7.179l-2.85-7.004H55.779l-2.85,7.004H45.925z
		 M58.215,18.577h8.288L62.371,8.461L58.215,18.577z"/>
	<path fill="#F7E824" d="M152.763,31.846L142.104,0.435h7.352l6.461,21.122l7.005-21.209h5.873l7.004,21.209l6.461-21.122h7.156
		l-10.637,31.411h-5.96l-7.048-20.404l-7.048,20.404H152.763z"/>
	<path fill="#F7E824" d="M183.466,31.628l13.378-31.411h6.309l13.378,31.411h-7.179l-2.85-7.004H193.32l-2.85,7.004H183.466z
		 M195.756,18.577h8.288l-4.133-10.115L195.756,18.577z"/>
	<path fill="#F7E824" d="M260.262,32.063c-2.407,0-4.756-0.42-7.047-1.261c-2.292-0.841-4.352-2.081-6.179-3.72l4.046-4.851
		c3.074,2.523,6.179,3.785,9.311,3.785c1.406,0,2.509-0.261,3.307-0.783s1.196-1.24,1.196-2.153v-0.087
		c0-0.608-0.16-1.116-0.479-1.522c-0.319-0.406-0.933-0.809-1.838-1.207c-0.907-0.399-2.229-0.816-3.971-1.251
		c-0.986-0.247-1.838-0.482-2.556-0.707c-0.718-0.225-1.461-0.493-2.229-0.805s-1.414-0.634-1.936-0.968
		c-0.522-0.333-1.026-0.732-1.512-1.196c-0.486-0.464-0.874-0.975-1.164-1.533c-0.29-0.559-0.519-1.2-0.686-1.925
		s-0.25-1.523-0.25-2.393V9.397c0-2.813,1.019-5.083,3.057-6.809C253.37,0.863,255.991,0,259.196,0
		c4.438,0,8.295,1.319,11.572,3.959l-3.567,5.177c-2.973-2.059-5.671-3.089-8.092-3.089c-1.276,0-2.266,0.253-2.97,0.761
		c-0.703,0.508-1.055,1.16-1.055,1.958v0.087c0,1.001,0.435,1.762,1.306,2.284c0.87,0.522,2.683,1.131,5.438,1.827
		c1.668,0.435,3.078,0.902,4.231,1.403c1.152,0.5,2.171,1.113,3.056,1.838s1.537,1.592,1.958,2.599
		c0.421,1.008,0.631,2.179,0.631,3.514v0.086c0,3.032-1.048,5.398-3.144,7.103C266.465,31.212,263.699,32.063,260.262,32.063z"/>
	<path fill="#F7E824" d="M145.344,46.97h10.247c2.545,0,4.531,0.559,5.961,1.674c1.429,1.118,2.144,2.792,2.144,5.024v0.135
		c0,2.008-0.681,3.615-2.043,4.822c-1.362,1.205-3.315,1.809-5.861,1.809h-8.444l16.148,24.111h12.056l-11.454-16.744
		c2.992-1.115,5.414-2.869,7.268-5.258c1.853-2.389,2.78-5.482,2.78-9.277v-0.133c0-4.465-1.34-8.038-4.02-10.718
		c-3.171-3.17-7.725-4.755-13.663-4.755h-21.434v46.885h10.315V69.543v-9.109V46.97z"/>
	<path fill="#F7E824" d="M88.465,6.637h6.815c1.693,0,3.014,0.372,3.965,1.114c0.95,0.742,1.426,1.856,1.426,3.341v0.088
		c0,1.337-0.453,2.406-1.359,3.208c-0.906,0.802-2.206,1.203-3.898,1.203h-5.616l10.74,16.038h8.019l-7.618-11.137
		c1.99-0.742,3.601-1.908,4.833-3.497c1.232-1.588,1.849-3.646,1.849-6.17v-0.089c0-2.969-0.891-5.346-2.673-7.128
		c-2.11-2.108-5.138-3.163-9.088-3.163H81.605v31.184h6.86v-9.979v-6.059V6.637z"/>
	<path fill="#F7E824" d="M226.005,6.637h6.815c1.693,0,3.015,0.372,3.965,1.114c0.951,0.742,1.426,1.856,1.426,3.341v0.088
		c0,1.337-0.452,2.406-1.358,3.208c-0.906,0.802-2.205,1.203-3.898,1.203h-5.616l10.74,16.038h8.019l-7.618-11.137
		c1.989-0.742,3.601-1.908,4.833-3.497c1.232-1.588,1.85-3.646,1.85-6.17v-0.089c0-2.969-0.892-5.346-2.673-7.128
		c-2.11-2.108-5.139-3.163-9.088-3.163h-14.256v31.184h6.86v-9.979v-6.059V6.637z"/>
</g>
</svg>
